<svg width="542" height="375" viewBox="0 0 542 375" fill="none" xmlns="http://www.w3.org/2000/svg">
<path d="M276.938 33.0394C105.469 -17.5882 126.79 133.798 107.251 193.913C87.7117 254.029 88.1322 361.574 238.814 324.267C389.496 286.961 448.408 83.6671 276.938 33.0394Z" fill="#D6E7FF"/>
<g filter="url(#filter0_d)">
<rect x="9" y="77" width="428" height="91" rx="10" fill="white"/>
<path d="M103.5 129.5H105.78L102.585 125.57C104.49 125.33 105.51 124.205 105.51 122.345C105.51 120.23 104.175 119 101.775 119H97.32V129.5H99.21V125.615H100.44L103.5 129.5ZM99.21 120.74H101.64C102.96 120.74 103.53 121.22 103.53 122.345C103.53 123.44 102.96 123.935 101.64 123.935H99.21V120.74ZM114.254 126.23C114.284 125.99 114.299 125.75 114.299 125.525C114.299 123.2 112.784 121.655 110.579 121.655C108.284 121.655 106.709 123.35 106.709 125.72C106.709 128.105 108.329 129.71 110.759 129.71C112.154 129.71 113.324 129.185 114.044 128.24L112.949 127.16C112.394 127.805 111.689 128.12 110.819 128.12C109.559 128.12 108.764 127.445 108.569 126.23H114.254ZM108.569 124.985C108.764 123.89 109.469 123.245 110.594 123.245C111.689 123.245 112.394 123.86 112.469 124.985H108.569ZM121.706 121.865V123.095C121.271 122.195 120.251 121.655 119.096 121.655C117.071 121.655 115.586 123.32 115.586 125.69C115.586 128.045 117.071 129.71 119.096 129.71C120.251 129.71 121.271 129.185 121.706 128.285V129.5H123.506V121.865H121.706ZM121.751 125.69C121.751 127.085 120.911 128.045 119.606 128.045C118.301 128.045 117.461 127.085 117.461 125.69C117.461 124.265 118.301 123.32 119.606 123.32C120.911 123.32 121.751 124.265 121.751 125.69ZM125.792 129.5H127.622V118.52H125.792V129.5ZM135.333 127.775V125.06H140.538V123.35H135.333V120.725H140.868V119H133.443V129.5H141.018V127.775H135.333ZM142.432 128.255C143.138 129.155 144.413 129.71 145.913 129.71C147.908 129.71 149.108 128.765 149.108 127.22C149.108 126.125 148.478 125.42 146.918 125.075L145.598 124.76C144.818 124.58 144.533 124.37 144.533 123.995C144.533 123.515 144.968 123.215 145.808 123.215C146.633 123.215 147.368 123.5 148.013 124.055L148.988 122.87C148.328 122.105 147.188 121.655 145.853 121.655C143.917 121.655 142.703 122.615 142.703 124.055C142.703 125.135 143.408 125.855 144.968 126.215L146.213 126.5C146.978 126.68 147.278 126.935 147.278 127.34C147.278 127.835 146.783 128.15 145.928 128.15C144.953 128.15 144.023 127.76 143.423 127.1L142.432 128.255ZM151.413 127.265C151.413 128.885 152.223 129.62 153.948 129.62C154.473 129.62 154.968 129.545 155.433 129.41V127.865C155.088 127.94 154.713 127.985 154.338 127.985C153.558 127.985 153.243 127.73 153.243 127.025V123.47H155.403V121.865H153.243V119.615H151.413V121.865H149.973V123.47H151.413V127.265ZM162.619 121.865V123.095C162.184 122.195 161.164 121.655 160.009 121.655C157.984 121.655 156.499 123.32 156.499 125.69C156.499 128.045 157.984 129.71 160.009 129.71C161.164 129.71 162.184 129.185 162.619 128.285V129.5H164.419V121.865H162.619ZM162.664 125.69C162.664 127.085 161.824 128.045 160.519 128.045C159.214 128.045 158.374 127.085 158.374 125.69C158.374 124.265 159.214 123.32 160.519 123.32C161.824 123.32 162.664 124.265 162.664 125.69ZM167.335 127.265C167.335 128.885 168.145 129.62 169.87 129.62C170.395 129.62 170.89 129.545 171.355 129.41V127.865C171.01 127.94 170.635 127.985 170.26 127.985C169.48 127.985 169.165 127.73 169.165 127.025V123.47H171.325V121.865H169.165V119.615H167.335V121.865H165.895V123.47H167.335V127.265ZM179.967 126.23C179.997 125.99 180.012 125.75 180.012 125.525C180.012 123.2 178.497 121.655 176.292 121.655C173.997 121.655 172.422 123.35 172.422 125.72C172.422 128.105 174.042 129.71 176.472 129.71C177.867 129.71 179.037 129.185 179.757 128.24L178.662 127.16C178.107 127.805 177.402 128.12 176.532 128.12C175.272 128.12 174.477 127.445 174.282 126.23H179.967ZM174.282 124.985C174.477 123.89 175.182 123.245 176.307 123.245C177.402 123.245 178.107 123.86 178.182 124.985H174.282ZM194.088 129.5L192.258 127.415C192.753 126.59 193.083 125.57 193.248 124.34H191.568C191.493 124.985 191.343 125.57 191.118 126.11L189.363 124.115L189.633 123.965C190.893 123.23 191.523 122.315 191.523 121.235C191.523 119.78 190.353 118.79 188.658 118.79C186.918 118.79 185.763 119.885 185.763 121.295C185.763 122.075 186.108 122.795 186.963 123.755L186.918 123.785C185.493 124.61 184.773 125.615 184.773 126.77C184.773 128.45 186.198 129.71 188.313 129.71C189.483 129.71 190.473 129.35 191.298 128.615L192.078 129.5H194.088ZM187.488 121.34C187.488 120.755 187.983 120.32 188.658 120.32C189.333 120.32 189.828 120.74 189.828 121.4C189.828 121.94 189.483 122.405 188.778 122.795L188.403 123.02L188.208 122.795C187.728 122.255 187.488 121.775 187.488 121.34ZM188.388 128.075C187.323 128.075 186.648 127.505 186.648 126.665C186.648 125.99 187.068 125.42 187.908 124.94L187.968 124.91L190.173 127.43C189.678 127.865 189.078 128.075 188.388 128.075ZM200.944 127.73V119H199.039V129.5H206.164V127.73H200.944ZM213.2 121.865V123.095C212.765 122.195 211.745 121.655 210.59 121.655C208.565 121.655 207.08 123.32 207.08 125.69C207.08 128.045 208.565 129.71 210.59 129.71C211.745 129.71 212.765 129.185 213.2 128.285V129.5H215V121.865H213.2ZM213.245 125.69C213.245 127.085 212.405 128.045 211.1 128.045C209.795 128.045 208.955 127.085 208.955 125.69C208.955 124.265 209.795 123.32 211.1 123.32C212.405 123.32 213.245 124.265 213.245 125.69ZM224.246 124.55C224.246 122.705 223.256 121.655 221.591 121.655C220.436 121.655 219.506 122.18 219.086 123.035V121.865H217.286V129.5H219.116V125.12C219.116 123.995 219.836 123.335 220.961 123.335C221.966 123.335 222.416 123.86 222.416 125.015V129.5H224.246V124.55ZM232.066 118.52V123.035C231.601 122.18 230.626 121.655 229.486 121.655C227.461 121.655 225.976 123.32 225.976 125.69C225.976 128.045 227.461 129.71 229.486 129.71C230.641 129.71 231.661 129.185 232.096 128.285V129.5H233.896V118.52H232.066ZM232.141 125.69C232.141 127.085 231.301 128.045 229.996 128.045C228.691 128.045 227.851 127.085 227.851 125.69C227.851 124.265 228.691 123.32 229.996 123.32C231.301 123.32 232.141 124.265 232.141 125.69ZM235.538 128.255C236.243 129.155 237.518 129.71 239.018 129.71C241.013 129.71 242.213 128.765 242.213 127.22C242.213 126.125 241.583 125.42 240.023 125.075L238.703 124.76C237.923 124.58 237.638 124.37 237.638 123.995C237.638 123.515 238.073 123.215 238.913 123.215C239.738 123.215 240.473 123.5 241.118 124.055L242.093 122.87C241.433 122.105 240.293 121.655 238.958 121.655C237.023 121.655 235.808 122.615 235.808 124.055C235.808 125.135 236.513 125.855 238.073 126.215L239.318 126.5C240.083 126.68 240.383 126.935 240.383 127.34C240.383 127.835 239.888 128.15 239.033 128.15C238.058 128.15 237.128 127.76 236.528 127.1L235.538 128.255Z" fill="#1E2329"/>
<g clip-path="url(#clip0)">
<path d="M70.7857 115.659V128.003V139.432C70.7857 141.641 68.9948 143.432 66.7857 143.432H36.2142C34.0051 143.432 32.2142 141.641 32.2142 139.432V115.659" stroke="#0056CD" stroke-width="3" stroke-linecap="round" stroke-linejoin="round"/>
<path d="M30.0715 115.659L50.8765 99.0655C51.2413 98.7746 51.7588 98.7746 52.1236 99.0655L72.9286 115.659" stroke="#0056CD" stroke-width="3" stroke-linecap="round" stroke-linejoin="round"/>
<path d="M56.8572 142.364V122C56.8572 121.448 56.4095 121 55.8572 121H46.0715C45.5192 121 45.0715 121.448 45.0715 122V142.364" stroke="#0056CD" stroke-width="3"/>
<path d="M64.3572 108.182V102.841" stroke="#0056CD" stroke-width="3" stroke-linecap="round" stroke-linejoin="round"/>
<path d="M49.9285 133.284C49.9285 133.891 49.4343 134.386 48.8214 134.386C48.2085 134.386 47.7142 133.891 47.7142 133.284C47.7142 132.677 48.2085 132.182 48.8214 132.182C49.4343 132.182 49.9285 132.677 49.9285 133.284Z" fill="#0056CD" stroke="#0056CD"/>
</g>
</g>
<g filter="url(#filter1_d)">
<rect x="122" y="186" width="411" height="91" rx="10" fill="white"/>
<path d="M248.705 233.665C248.705 232.3 247.895 231.4 246.5 231.1C247.655 230.755 248.315 229.93 248.315 228.73C248.315 227.905 248.015 227.245 247.415 226.75C246.83 226.255 246.02 226 245.015 226H240.32V236.5H245.375C247.43 236.5 248.705 235.405 248.705 233.665ZM244.595 227.65C245.81 227.65 246.365 228.1 246.365 228.985C246.365 229.885 245.81 230.335 244.595 230.335H242.21V227.65H244.595ZM246.725 233.41C246.725 234.37 246.14 234.85 244.955 234.85H242.21V231.97H244.955C246.14 231.97 246.725 232.45 246.725 233.41ZM250.163 232.69C250.163 234.91 251.798 236.71 254.183 236.71C256.613 236.71 258.203 234.91 258.203 232.69C258.203 230.455 256.613 228.655 254.183 228.655C251.798 228.655 250.163 230.455 250.163 232.69ZM256.328 232.69C256.328 234.085 255.488 235.045 254.183 235.045C252.878 235.045 252.038 234.085 252.038 232.69C252.038 231.265 252.878 230.32 254.183 230.32C255.488 230.32 256.328 231.265 256.328 232.69ZM266.963 231.55C266.963 229.705 265.973 228.655 264.308 228.655C263.153 228.655 262.223 229.18 261.803 230.035V228.865H260.003V236.5H261.833V232.12C261.833 230.995 262.553 230.335 263.678 230.335C264.683 230.335 265.133 230.86 265.133 232.015V236.5H266.963V231.55ZM274.783 225.52V230.035C274.318 229.18 273.343 228.655 272.203 228.655C270.178 228.655 268.693 230.32 268.693 232.69C268.693 235.045 270.178 236.71 272.203 236.71C273.358 236.71 274.378 236.185 274.813 235.285V236.5H276.613V225.52H274.783ZM274.858 232.69C274.858 234.085 274.018 235.045 272.713 235.045C271.408 235.045 270.568 234.085 270.568 232.69C270.568 231.265 271.408 230.32 272.713 230.32C274.018 230.32 274.858 231.265 274.858 232.69ZM278.255 235.255C278.96 236.155 280.235 236.71 281.735 236.71C283.73 236.71 284.93 235.765 284.93 234.22C284.93 233.125 284.3 232.42 282.74 232.075L281.42 231.76C280.64 231.58 280.355 231.37 280.355 230.995C280.355 230.515 280.79 230.215 281.63 230.215C282.455 230.215 283.19 230.5 283.835 231.055L284.81 229.87C284.15 229.105 283.01 228.655 281.675 228.655C279.74 228.655 278.525 229.615 278.525 231.055C278.525 232.135 279.23 232.855 280.79 233.215L282.035 233.5C282.8 233.68 283.1 233.935 283.1 234.34C283.1 234.835 282.605 235.15 281.75 235.15C280.775 235.15 279.845 234.76 279.245 234.1L278.255 235.255ZM298.943 236.5L297.113 234.415C297.608 233.59 297.938 232.57 298.103 231.34H296.423C296.348 231.985 296.198 232.57 295.973 233.11L294.218 231.115L294.488 230.965C295.748 230.23 296.378 229.315 296.378 228.235C296.378 226.78 295.208 225.79 293.513 225.79C291.773 225.79 290.618 226.885 290.618 228.295C290.618 229.075 290.963 229.795 291.818 230.755L291.773 230.785C290.348 231.61 289.628 232.615 289.628 233.77C289.628 235.45 291.053 236.71 293.168 236.71C294.338 236.71 295.328 236.35 296.153 235.615L296.933 236.5H298.943ZM292.343 228.34C292.343 227.755 292.838 227.32 293.513 227.32C294.188 227.32 294.683 227.74 294.683 228.4C294.683 228.94 294.338 229.405 293.633 229.795L293.258 230.02L293.063 229.795C292.583 229.255 292.343 228.775 292.343 228.34ZM293.243 235.075C292.178 235.075 291.503 234.505 291.503 233.665C291.503 232.99 291.923 232.42 292.763 231.94L292.823 231.91L295.028 234.43C294.533 234.865 293.933 235.075 293.243 235.075ZM303.099 234.34C303.804 235.825 305.409 236.71 307.509 236.71C310.074 236.71 311.574 235.405 311.574 233.47C311.574 231.97 310.674 231.01 308.694 230.53L306.969 230.125C305.769 229.84 305.334 229.435 305.334 228.82C305.334 227.995 306.039 227.5 307.299 227.5C308.454 227.5 309.369 227.92 309.954 228.715L311.319 227.71C310.704 226.525 309.204 225.79 307.329 225.79C304.899 225.79 303.399 227.05 303.399 228.85C303.399 230.335 304.389 231.325 306.354 231.79L308.049 232.195C309.189 232.48 309.639 232.885 309.639 233.56C309.639 234.445 308.889 235 307.569 235C306.204 235 305.094 234.415 304.479 233.35L303.099 234.34ZM313.88 234.265C313.88 235.885 314.69 236.62 316.415 236.62C316.94 236.62 317.435 236.545 317.9 236.41V234.865C317.555 234.94 317.18 234.985 316.805 234.985C316.025 234.985 315.71 234.73 315.71 234.025V230.47H317.87V228.865H315.71V226.615H313.88V228.865H312.44V230.47H313.88V234.265ZM318.967 232.69C318.967 234.91 320.602 236.71 322.987 236.71C325.417 236.71 327.007 234.91 327.007 232.69C327.007 230.455 325.417 228.655 322.987 228.655C320.602 228.655 318.967 230.455 318.967 232.69ZM325.132 232.69C325.132 234.085 324.292 235.045 322.987 235.045C321.682 235.045 320.842 234.085 320.842 232.69C320.842 231.265 321.682 230.32 322.987 230.32C324.292 230.32 325.132 231.265 325.132 232.69ZM328.327 232.69C328.327 235.045 329.932 236.71 332.302 236.71C333.757 236.71 334.957 236.08 335.602 234.985L334.222 234.01C333.787 234.685 333.127 235.045 332.347 235.045C331.042 235.045 330.202 234.115 330.202 232.69C330.202 231.25 331.042 230.335 332.347 230.335C333.172 230.335 333.787 230.68 334.222 231.355L335.602 230.38C334.957 229.3 333.757 228.655 332.302 228.655C329.932 228.655 328.327 230.32 328.327 232.69ZM342.228 236.5H344.373L341.388 232.495L344.313 228.865H342.168L339.918 231.7H338.928V225.52H337.098V236.5H338.928V233.29H339.858L342.228 236.5ZM344.92 235.255C345.625 236.155 346.9 236.71 348.4 236.71C350.395 236.71 351.595 235.765 351.595 234.22C351.595 233.125 350.965 232.42 349.405 232.075L348.085 231.76C347.305 231.58 347.02 231.37 347.02 230.995C347.02 230.515 347.455 230.215 348.295 230.215C349.12 230.215 349.855 230.5 350.5 231.055L351.475 229.87C350.815 229.105 349.675 228.655 348.34 228.655C346.405 228.655 345.19 229.615 345.19 231.055C345.19 232.135 345.895 232.855 347.455 233.215L348.7 233.5C349.465 233.68 349.765 233.935 349.765 234.34C349.765 234.835 349.27 235.15 348.415 235.15C347.44 235.15 346.51 234.76 345.91 234.1L344.92 235.255Z" fill="#1E2329"/>
<g clip-path="url(#clip1)">
<path d="M150.167 209.833H217.833V247.167H150.167V209.833Z" stroke="#0056CD" stroke-width="3" stroke-miterlimit="10" stroke-linecap="round" stroke-linejoin="round"/>
<path d="M184 237.833C189.155 237.833 193.333 233.655 193.333 228.5C193.333 223.345 189.155 219.167 184 219.167C178.845 219.167 174.667 223.345 174.667 228.5C174.667 233.655 178.845 237.833 184 237.833Z" stroke="#0056CD" stroke-width="3" stroke-miterlimit="10" stroke-linecap="round" stroke-linejoin="round"/>
<path d="M202.667 237.833H207.333M160.667 219.167H165.333H160.667Z" stroke="#0056CD" stroke-width="3" stroke-miterlimit="10" stroke-linecap="round" stroke-linejoin="round"/>
<path d="M149.939 215.817C151.746 218.084 155.049 218.457 157.317 216.65C159.584 214.843 159.957 211.539 158.15 209.272" stroke="#0056CD" stroke-width="3"/>
<path d="M156.187 247.209C158.68 245.727 159.499 242.506 158.018 240.013C156.537 237.521 153.316 236.701 150.823 238.182" stroke="#0056CD" stroke-width="3"/>
<path d="M218.191 238.95C216.005 237.045 212.689 237.272 210.784 239.457C208.878 241.643 209.105 244.959 211.29 246.864" stroke="#0056CD" stroke-width="3"/>
<path d="M213.248 209.833C210.626 211.071 209.503 214.2 210.741 216.822C211.979 219.444 215.108 220.566 217.73 219.329" stroke="#0056CD" stroke-width="3"/>
<g clip-path="url(#clip2)">
<rect width="24.5" height="28" transform="translate(185.167 228.5)" fill="white"/>
<path d="M207.917 242.705C207.917 244.314 203.216 245.619 197.417 245.619C191.618 245.619 186.917 244.314 186.917 242.705" stroke="#0056CD" stroke-width="2" stroke-miterlimit="10" stroke-linecap="round" stroke-linejoin="round"/>
<path d="M186.917 247.276C186.917 248.876 191.583 250.19 197.417 250.19C203.25 250.19 207.917 248.876 207.917 247.276" stroke="#0056CD" stroke-width="2" stroke-miterlimit="10" stroke-linecap="round" stroke-linejoin="round"/>
<path d="M207.917 242.705V251.848C207.917 253.448 203.192 254.762 197.417 254.762C191.642 254.762 186.917 253.448 186.917 251.848V242.933" stroke="#0056CD" stroke-width="2" stroke-miterlimit="10" stroke-linecap="round" stroke-linejoin="round"/>
<path d="M186.917 238.133C186.917 239.733 191.583 241.048 197.417 241.048C203.25 241.048 207.917 239.733 207.917 238.133" stroke="#0056CD" stroke-width="2" stroke-miterlimit="10" stroke-linecap="round" stroke-linejoin="round"/>
<path d="M207.917 233.562V242.705C207.917 244.305 203.192 245.619 197.417 245.619C191.642 245.619 186.917 244.305 186.917 242.705V233.79" stroke="#0056CD" stroke-width="2" stroke-miterlimit="10" stroke-linecap="round" stroke-linejoin="round"/>
<path d="M197.417 236.476C203.216 236.476 207.917 235.171 207.917 233.562C207.917 231.952 203.216 230.648 197.417 230.648C191.618 230.648 186.917 231.952 186.917 233.562C186.917 235.171 191.618 236.476 197.417 236.476Z" stroke="#0056CD" stroke-width="2" stroke-miterlimit="10" stroke-linecap="round" stroke-linejoin="round"/>
</g>
</g>
</g>
<defs>
<filter id="filter0_d" x="0" y="71" width="446" height="109" filterUnits="userSpaceOnUse" color-interpolation-filters="sRGB">
<feFlood flood-opacity="0" result="BackgroundImageFix"/>
<feColorMatrix in="SourceAlpha" type="matrix" values="0 0 0 0 0 0 0 0 0 0 0 0 0 0 0 0 0 0 127 0"/>
<feMorphology radius="1" operator="erode" in="SourceAlpha" result="effect1_dropShadow"/>
<feOffset dy="3"/>
<feGaussianBlur stdDeviation="5"/>
<feColorMatrix type="matrix" values="0 0 0 0 0 0 0 0 0 0 0 0 0 0 0 0 0 0 0.15 0"/>
<feBlend mode="normal" in2="BackgroundImageFix" result="effect1_dropShadow"/>
<feBlend mode="normal" in="SourceGraphic" in2="effect1_dropShadow" result="shape"/>
</filter>
<filter id="filter1_d" x="113" y="180" width="429" height="109" filterUnits="userSpaceOnUse" color-interpolation-filters="sRGB">
<feFlood flood-opacity="0" result="BackgroundImageFix"/>
<feColorMatrix in="SourceAlpha" type="matrix" values="0 0 0 0 0 0 0 0 0 0 0 0 0 0 0 0 0 0 127 0"/>
<feMorphology radius="1" operator="erode" in="SourceAlpha" result="effect1_dropShadow"/>
<feOffset dy="3"/>
<feGaussianBlur stdDeviation="5"/>
<feColorMatrix type="matrix" values="0 0 0 0 0 0 0 0 0 0 0 0 0 0 0 0 0 0 0.15 0"/>
<feBlend mode="normal" in2="BackgroundImageFix" result="effect1_dropShadow"/>
<feBlend mode="normal" in="SourceGraphic" in2="effect1_dropShadow" result="shape"/>
</filter>
<clipPath id="clip0">
<rect width="45" height="47" fill="white" transform="translate(29 97.5)"/>
</clipPath>
<clipPath id="clip1">
<rect width="70" height="49" fill="white" transform="translate(149 207.5)"/>
</clipPath>
<clipPath id="clip2">
<rect width="24.5" height="28" fill="white" transform="translate(185.167 228.5)"/>
</clipPath>
</defs>
</svg>

